<svg width="1920" height="1080" viewBox="0 0 1920 1080" fill="none" xmlns="http://www.w3.org/2000/svg">
<path d="M115 40H253V92H115V40Z" fill="#D9D9D9"/>
<path d="M72 942H336V1003H72V942Z" fill="black"/>
<path d="M221 954H311V992H221V954Z" fill="#C40304"/>
<path fill-rule="evenodd" clip-rule="evenodd" d="M112.123 979.95L112.15 980.125C112.207 980.502 112.282 980.993 112.366 981.543L112.366 981.544C112.549 982.743 112.774 984.218 112.948 985.386C113.029 985.887 113.108 986.382 113.181 986.837C113.354 987.914 113.49 988.769 113.529 988.96L113.637 989.468H117.066C119.228 989.468 120.056 989.565 120.416 989.201C120.715 988.898 120.691 988.277 120.839 987.019C120.948 986.112 121.239 983.717 121.493 981.667C121.65 980.295 121.947 977.882 122.245 975.451L122.245 975.448C122.392 974.249 122.54 973.046 122.672 971.962C122.772 971.131 122.883 970.212 122.997 969.262C122.998 969.257 122.999 969.252 122.999 969.247C123.339 966.426 123.711 963.338 123.942 961.495C124.044 960.615 124.143 959.785 124.227 959.075L124.227 959.072C124.38 957.778 124.486 956.884 124.486 956.814C124.486 956.705 123.234 956.633 121.057 956.633H117.647L117.538 957.213C117.501 957.54 117.139 960.987 116.776 964.887C116.123 971.835 116.032 972.542 115.869 972.397C115.796 972.307 115.343 967.39 114.762 960.442C114.617 958.592 114.454 956.978 114.418 956.851C114.363 956.687 113.547 956.633 111.17 956.633C108.014 956.633 107.978 956.633 107.905 957.032C107.851 957.268 107.724 958.719 107.615 960.261C107.506 961.803 107.252 964.941 107.052 967.245C106.871 969.531 106.708 971.635 106.708 971.908C106.708 972.18 106.635 972.415 106.563 972.415C106.472 972.415 106.109 969.205 105.728 965.286" fill="white"/>
<path d="M233.65 963.962C234.83 968.116 235.864 971.653 235.954 971.799C236.045 971.944 236.118 968.533 236.118 964.216V956.379H243.193V989.032L239.619 988.996L236.045 988.942L233.85 981.286C232.653 977.077 231.601 973.576 231.528 973.504C231.455 973.431 231.401 976.896 231.401 981.195V989.032H224.326V956.379L227.737 956.342C229.605 956.306 231.22 956.306 231.31 956.342C231.419 956.361 232.471 959.789 233.65 963.962Z" fill="white"/>
<path d="M261.842 959.372L261.878 962.365L257.252 962.401L252.608 962.456V969.531L256.073 969.585L259.519 969.622V975.789H252.626V983.046L261.787 982.973L261.842 986.003L261.878 989.032H245.551V972.742C245.551 963.78 245.587 956.397 245.624 956.361C245.66 956.324 249.324 956.306 253.751 956.324L261.787 956.379L261.842 959.372Z" fill="white"/>
<path d="M270.295 963.817C270.676 967.753 271.021 971.127 271.093 971.327C271.166 971.508 271.511 968.243 271.837 964.07C272.164 959.88 272.454 956.433 272.49 956.415C272.581 956.324 278.985 956.379 279.075 956.469C279.112 956.506 279.293 958.392 279.493 960.678C280.273 969.821 280.49 971.907 280.617 971.254C280.69 970.91 281.035 967.427 281.416 963.544L282.105 956.469L285.461 956.379C287.311 956.324 288.908 956.306 289.017 956.342C289.144 956.379 289.198 956.542 289.162 956.705C289.125 956.869 288.636 960.769 288.091 965.358C287.547 969.948 286.676 977.15 286.15 981.377L285.207 989.032L281.67 988.996L278.114 988.942L277.025 981.83C276.427 977.912 275.901 974.701 275.846 974.701C275.792 974.701 275.248 977.912 274.649 981.812L273.561 988.942L269.987 988.996C268.028 989.014 266.413 988.978 266.413 988.887C266.413 988.815 266.286 987.781 266.141 986.583C265.996 985.386 265.724 983.064 265.524 981.413C264.2 970.347 262.585 957.122 262.513 956.796L262.422 956.379L265.814 956.342C267.901 956.306 269.297 956.361 269.424 956.469C269.551 956.578 269.914 959.572 270.295 963.817Z" fill="white"/>
<path d="M302.169 956.107C304.636 956.633 306.468 957.975 307.502 960.007C308.065 961.113 308.5 962.964 308.5 964.324V965.268L305.035 965.232L301.57 965.177L301.479 964.27C301.389 963.127 300.971 962.42 300.155 961.966C299.085 961.367 297.652 961.767 296.944 962.837C296.763 963.127 296.654 963.671 296.654 964.324C296.654 966.302 297.888 967.898 301.153 970.075C306.523 973.685 308.5 976.497 308.5 980.488C308.482 984.134 307.357 986.62 305.035 988.125C303.421 989.178 302.114 989.468 299.248 989.468C295.747 989.486 293.824 988.833 292.155 987.091C290.794 985.694 290.105 983.989 289.887 981.486L289.76 980.143H296.89V980.869C296.89 982.937 298.649 984.279 300.282 983.463C301.752 982.737 302.169 981.105 301.371 979.345C300.754 977.985 299.611 976.896 296.926 975.082C293.334 972.651 291.067 970.166 290.232 967.753C289.833 966.592 289.797 963.49 290.16 962.002C290.486 960.642 291.538 958.664 292.282 958.03C293.951 956.56 296.11 955.853 299.012 955.853C300.028 955.834 301.443 955.962 302.169 956.107Z" fill="white"/>
<path d="M209.204 983.3L212.705 983.336L216.188 983.391L216.243 986.438L216.279 989.468L209.349 989.432L202.401 989.377L202.347 973.232C202.329 964.343 202.347 956.978 202.401 956.851C202.455 956.687 203.326 956.633 205.848 956.633H209.204V983.3Z" fill="white"/>
<path d="M190.7 983.3L195.29 983.336L199.861 983.391L199.916 986.438L199.952 989.468L191.843 989.432L183.716 989.377L183.661 973.232C183.643 964.343 183.661 956.978 183.716 956.851C183.77 956.687 185.584 956.633 191.879 956.633H199.952V962.801H190.7V970.057H197.594V976.044H190.7V983.3Z" fill="white"/>
<path d="M181.122 956.742C181.176 956.796 181.122 957.141 180.977 957.504C180.686 958.266 179.144 962.71 176.605 970.057C175.661 972.796 174.246 976.896 173.448 979.164C172.668 981.45 172.088 983.3 172.16 983.3C172.233 983.318 174.283 983.336 176.732 983.354L181.176 983.391V989.377L171.979 989.432C164.668 989.468 162.763 989.432 162.763 989.25C162.763 989.051 167.081 976.497 170.763 965.994C171.344 964.306 171.834 962.891 171.834 962.873C171.834 962.837 169.766 962.783 167.262 962.764L162.672 962.71L162.618 959.898C162.6 958.356 162.618 956.996 162.654 956.869C162.727 956.687 164.595 956.633 171.888 956.633C176.913 956.633 181.067 956.687 181.122 956.742Z" fill="white"/>
<path fill-rule="evenodd" clip-rule="evenodd" d="M155.724 957.54C155.797 957.885 156.523 961.603 157.321 965.794C158.137 969.985 158.99 974.465 159.244 975.772C160.641 983.046 161.856 989.377 161.856 989.414C161.856 989.45 160.314 989.468 158.427 989.468C154.509 989.468 154.908 989.667 154.672 987.563C154.473 985.767 154.545 985.822 152.006 985.876L149.792 985.93L149.248 989.377L145.819 989.432L142.391 989.468L142.5 988.706C142.572 988.035 143.443 983.481 146.981 965.25C147.289 963.653 147.742 961.277 147.996 959.989C148.232 958.683 148.486 957.449 148.522 957.213L148.613 956.814L152.096 956.851L155.579 956.905L155.724 957.54ZM151.334 974.864C151.643 972.669 151.933 970.674 151.987 970.438C152.042 970.202 152.114 970.057 152.169 970.112C152.26 970.202 153.493 978.91 153.511 979.527C153.511 979.817 153.33 979.853 152.042 979.853H150.572L150.681 979.345C150.736 979.073 151.026 977.059 151.334 974.864Z" fill="white"/>
<path d="M141.538 989.468L133.429 989.432L125.302 989.377L125.248 973.232C125.23 964.343 125.248 956.978 125.302 956.851C125.357 956.687 127.171 956.633 133.466 956.633H141.538V962.801H132.286V970.057H139.18V976.044H132.286V983.3H141.538V989.468Z" fill="white"/>
<path d="M104.93 957.449C105.002 957.848 105.365 961.386 105.728 965.286C106.109 969.205 106.472 972.415 106.563 972.415C106.635 972.415 106.708 972.18 106.708 971.908C106.708 971.635 106.871 969.531 107.052 967.245C107.252 964.941 107.506 961.803 107.615 960.261C107.724 958.719 107.851 957.268 107.905 957.032C107.978 956.633 108.014 956.633 111.17 956.633C113.547 956.633 114.363 956.687 114.418 956.851C114.454 956.978 114.617 958.592 114.762 960.442C115.343 967.39 115.796 972.307 115.869 972.397C116.032 972.542 116.123 971.835 116.776 964.887C117.139 960.987 117.501 957.54 117.538 957.213L117.647 956.633H121.057C123.234 956.633 124.486 956.705 124.486 956.814C124.486 956.884 124.38 957.778 124.227 959.072L124.227 959.075C124.143 959.785 124.044 960.615 123.942 961.495C123.711 963.338 123.339 966.426 122.999 969.247L122.997 969.262C122.883 970.212 122.772 971.131 122.672 971.962C122.54 973.046 122.392 974.249 122.245 975.448L122.245 975.451C121.947 977.882 121.65 980.295 121.493 981.667C121.239 983.717 120.948 986.112 120.839 987.019C120.691 988.277 120.715 988.898 120.416 989.201C120.056 989.565 119.228 989.468 117.066 989.468H113.637L113.529 988.96C113.49 988.769 113.354 987.914 113.181 986.837C113.108 986.382 113.029 985.887 112.948 985.386C112.774 984.218 112.549 982.743 112.366 981.544L112.366 981.543C112.282 980.993 112.207 980.502 112.15 980.125L112.123 979.95C111.944 978.769 111.709 977.218 111.606 976.406C111.479 975.554 111.315 974.792 111.225 974.719C111.152 974.629 111.043 974.991 110.971 975.536C110.499 979.019 108.848 989.214 108.739 989.323C108.649 989.413 107.089 989.45 105.238 989.432L101.9 989.377L101.41 985.386C101.157 983.191 100.703 979.599 100.449 977.404C100.177 975.209 99.6871 971.164 99.3424 968.424C99.0159 965.685 98.6531 962.656 98.5442 961.712C98.4354 960.769 98.2721 959.445 98.1633 958.773C98.0726 958.102 98 957.358 98 957.086V956.633L101.392 956.669L104.803 956.724L104.93 957.449Z" fill="white"/>
</svg>
